<svg width="16.000000" height="16.000000" viewBox="0 0 16 16" fill="none" xmlns="http://www.w3.org/2000/svg" xmlns:xlink="http://www.w3.org/1999/xlink">
	<desc>
			Created with Pixso.
	</desc>
	<defs>
		<clipPath id="clip16_1438">
			<rect id="fi_1077086" width="16.000000" height="16.000000" fill="white" fill-opacity="0"/>
		</clipPath>
	</defs>
	<rect id="fi_1077086" width="16.000000" height="16.000000" fill="#FFFFFF" fill-opacity="0"/>
	<g clip-path="url(#clip16_1438)">
		<path id="Vector" d="M14.7305 2.26807C13.9023 1.36975 12.7656 0.875 11.5312 0.875C10.6074 0.875 9.76172 1.16699 9.01562 1.7428C8.64062 2.03345 8.30078 2.38904 8 2.80408C7.69922 2.38916 7.35938 2.03345 6.98438 1.7428C6.23828 1.16699 5.39258 0.875 4.46875 0.875C3.23438 0.875 2.09766 1.36975 1.26953 2.26807C0.451172 3.15588 0 4.36877 0 5.68347C0 7.03662 0.503906 8.27527 1.58594 9.58167C2.55469 10.7502 3.94727 11.9365 5.55859 13.3102C6.10938 13.7793 6.73438 14.311 7.38086 14.8774C7.55273 15.0273 7.77148 15.1099 8 15.1099C8.22852 15.1099 8.44727 15.0273 8.61914 14.8777C9.26562 14.3112 9.89062 13.7792 10.4414 13.3098C12.0527 11.9364 13.4453 10.7502 14.4141 9.58154C15.4961 8.27527 16 7.03662 16 5.68335C16 4.36877 15.5488 3.15588 14.7305 2.26807Z" fill="#A6A6A6" fill-opacity="1.000000" fill-rule="nonzero"/>
	</g>
</svg>
