<svg width="27" height="27" viewBox="0 0 27 27" fill="none" xmlns="http://www.w3.org/2000/svg">
<g clip-path="url(#clip0_16_1639)">
<path d="M27 13.5C27 6.04416 20.9558 0 13.5 0C6.04416 0 0 6.04416 0 13.5C0 20.9558 6.04416 27 13.5 27C20.9558 27 27 20.9558 27 13.5Z" fill="url(#paint0_linear_16_1639)"/>
<path opacity="0.1" d="M23.6604 4.61845C21.6922 8.23147 18.9087 11.9582 15.4307 15.4362C11.9527 18.9142 8.22597 21.6924 4.61827 23.6606C4.39209 23.464 4.17241 23.2591 3.95926 23.0459C2.67082 21.8005 1.64322 20.311 0.936387 18.6644C0.229552 17.0177 -0.142375 15.2468 -0.157709 13.4549C-0.173042 11.663 0.168525 9.88594 0.847077 8.22741C1.52563 6.56888 2.52759 5.06204 3.79452 3.79475C5.06146 2.52746 6.56802 1.52508 8.22636 0.846063C9.8847 0.167049 11.6616 -0.175015 13.4535 -0.160182C15.2455 -0.145349 17.0165 0.226085 18.6633 0.93246C20.3102 1.63883 21.8 2.66602 23.0458 3.95411C23.2589 4.16726 23.4638 4.38871 23.6604 4.61845Z" fill="white"/>
<path d="M16.6972 6.39478H10.3024C9.26599 6.39478 8.272 6.8065 7.53913 7.53937C6.80625 8.27224 6.39453 9.26623 6.39453 10.3027V16.6974C6.39453 17.7338 6.80625 18.7278 7.53913 19.4607C8.272 20.1936 9.26599 20.6053 10.3024 20.6053H16.6972C17.7336 20.6053 18.7276 20.1936 19.4605 19.4607C20.1933 18.7278 20.6051 17.7338 20.6051 16.6974V10.3027C20.6051 9.26623 20.1933 8.27224 19.4605 7.53937C18.7276 6.8065 17.7336 6.39478 16.6972 6.39478ZM19.3616 16.1361C19.3616 16.9916 19.0218 17.8121 18.4168 18.4171C17.8119 19.022 16.9914 19.3619 16.1358 19.3619H10.8637C10.0082 19.3619 9.18772 19.022 8.58276 18.4171C7.97781 17.8121 7.63795 16.9916 7.63795 16.1361V10.864C7.63795 10.0085 7.97781 9.18796 8.58276 8.58301C9.18772 7.97806 10.0082 7.6382 10.8637 7.6382H16.1358C16.9914 7.6382 17.8119 7.97806 18.4168 8.58301C19.0218 9.18796 19.3616 10.0085 19.3616 10.864V16.1361Z" fill="white"/>
<path d="M16.0908 10.935L16.057 10.9013L16.0286 10.8728C15.357 10.2035 14.4473 9.82792 13.4991 9.82837C13.0203 9.83162 12.5468 9.92919 12.1057 10.1155C11.6646 10.3018 11.2645 10.5732 10.9284 10.9142C10.5922 11.2551 10.3265 11.659 10.1464 12.1027C9.96636 12.5464 9.87549 13.0212 9.879 13.5C9.87828 14.4718 10.2613 15.4045 10.9448 16.0952C11.2796 16.4341 11.6785 16.7028 12.1183 16.8858C12.5581 17.0688 13.0299 17.1624 13.5062 17.161C14.2207 17.146 14.9154 16.9234 15.5056 16.5204C16.0958 16.1174 16.5559 15.5513 16.8299 14.8913C17.1039 14.2313 17.18 13.5057 17.0487 12.8032C16.9175 12.1007 16.5846 11.4516 16.0908 10.935ZM13.4991 15.9087C13.0214 15.9154 12.5524 15.7798 12.1519 15.5193C11.7514 15.2587 11.4374 14.8849 11.2499 14.4454C11.0624 14.0059 11.0098 13.5206 11.0989 13.0511C11.188 12.5817 11.4147 12.1494 11.7502 11.8091C12.0857 11.4689 12.5148 11.2361 12.9829 11.1404C13.4511 11.0447 13.9371 11.0904 14.3792 11.2716C14.8213 11.4529 15.1995 11.7616 15.4657 12.1584C15.7319 12.5552 15.874 13.0222 15.8741 13.5C15.8764 13.8141 15.8168 14.1257 15.6987 14.4167C15.5806 14.7078 15.4063 14.9728 15.1857 15.1965C14.9652 15.4202 14.7027 15.5982 14.4133 15.7204C14.1239 15.8426 13.8133 15.9066 13.4991 15.9087Z" fill="white"/>
<path d="M18.1937 9.6597C18.1946 9.77369 18.1731 9.88674 18.1303 9.99238C18.0875 10.098 18.0242 10.1942 17.9442 10.2754C17.8642 10.3565 17.7689 10.4211 17.6639 10.4655C17.5589 10.5098 17.4462 10.533 17.3322 10.5336C17.2191 10.5336 17.1073 10.5111 17.003 10.4675C16.8987 10.4239 16.8041 10.3601 16.7247 10.2796C16.6043 10.1575 16.5225 10.0028 16.4893 9.83462C16.456 9.66644 16.4729 9.49221 16.5378 9.33352C16.6027 9.17484 16.7127 9.03869 16.8542 8.94194C16.9957 8.8452 17.1625 8.79213 17.334 8.78931C17.5346 8.78927 17.7288 8.85968 17.8828 8.98825L17.9006 9.00602C17.9292 9.02934 17.9554 9.05553 17.9788 9.08418L17.9983 9.10549C18.1254 9.26214 18.1945 9.45795 18.1937 9.6597Z" fill="white"/>
</g>
<defs>
<linearGradient id="paint0_linear_16_1639" x1="3.95408" y1="3.95408" x2="23.0459" y2="23.0459" gradientUnits="userSpaceOnUse">
<stop stop-color="#FAE100"/>
<stop offset="0.15" stop-color="#FCB720"/>
<stop offset="0.3" stop-color="#FF7950"/>
<stop offset="0.5" stop-color="#FF1C74"/>
<stop offset="1" stop-color="#6C1CD1"/>
</linearGradient>
<clipPath id="clip0_16_1639">
<rect width="27" height="27" fill="white"/>
</clipPath>
</defs>
</svg>
