<svg width="29.000000" height="29.000000" viewBox="0 0 29 29" fill="none" xmlns="http://www.w3.org/2000/svg" xmlns:xlink="http://www.w3.org/1999/xlink">
	<desc>
			Created with Pixso.
	</desc>
	<defs/>
	<path id="Background" d="M29 14.5C29 22.5081 22.5078 29 14.5 29C6.49219 29 0 22.5081 0 14.5C0 6.49194 6.49219 0 14.5 0C22.5078 0 29 6.49194 29 14.5Z" fill="#FF9800" fill-opacity="1.000000" fill-rule="evenodd"/>
	<path id="Vector" d="M14.5 6.86841C13.7383 6.86841 12.9941 7.09424 12.3604 7.51733C11.7275 7.94043 11.2344 8.54175 10.9424 9.24512C10.6514 9.94873 10.5752 10.7229 10.7236 11.4697C10.8721 12.2166 11.2383 12.9026 11.7773 13.4409C12.3154 13.9795 13.002 14.3462 13.748 14.4946C14.4951 14.6433 15.2695 14.5669 15.9727 14.2756C16.6768 13.9841 17.2773 13.4907 17.7012 12.8577C18.124 12.2244 18.3496 11.48 18.3496 10.7185C18.3496 10.2129 18.251 9.71216 18.0566 9.24487C17.8633 8.77759 17.5801 8.35303 17.2227 7.99561C16.8652 7.63794 16.4404 7.35449 15.9736 7.16089C15.5059 6.96753 15.0049 6.86816 14.5 6.86841ZM14.5 12.6379C14.1201 12.6379 13.749 12.5254 13.4336 12.3145C13.1172 12.1035 12.8711 11.8037 12.7266 11.4531C12.5811 11.1023 12.543 10.7163 12.6172 10.344C12.6914 9.97168 12.874 9.62988 13.1426 9.36133C13.4111 9.09302 13.7529 8.91016 14.125 8.83618C14.4971 8.76196 14.8838 8.80005 15.2344 8.94531C15.585 9.09058 15.8848 9.33667 16.0957 9.6521C16.3066 9.96777 16.4189 10.3389 16.4189 10.7185C16.4189 10.9707 16.3701 11.2205 16.2734 11.4534C16.1768 11.6863 16.0352 11.8979 15.8574 12.0762C15.6787 12.2546 15.4678 12.396 15.2344 12.4922C15.001 12.5886 14.752 12.6382 14.5 12.6379Z" fill="#FFFFFF" fill-opacity="1.000000" fill-rule="nonzero"/>
	<path id="Vector" d="M20.1748 15.1582C20.0908 15.0085 19.9785 14.877 19.8438 14.7708C19.709 14.6646 19.5547 14.5862 19.3887 14.5396C19.2236 14.4932 19.0508 14.4797 18.8809 14.5002C18.7109 14.5205 18.5459 14.5745 18.3965 14.6584C15.7754 16.1274 13.2256 16.1274 10.6045 14.6584C10.4541 14.5745 10.2891 14.521 10.1182 14.501C9.94727 14.481 9.77344 14.4949 9.60742 14.5417C9.44238 14.5886 9.28711 14.6677 9.15234 14.7747C9.01758 14.8813 8.9043 15.0137 8.82031 15.1641C8.73633 15.3145 8.68359 15.4797 8.66309 15.6506C8.64355 15.8218 8.65723 15.9951 8.7041 16.1606C8.79883 16.4951 9.02246 16.7783 9.32617 16.948C10.1865 17.436 11.1055 17.8123 12.0605 18.0679L10.2061 19.9224C9.96191 20.166 9.8252 20.4963 9.8252 20.8411C9.8252 21.1855 9.96191 21.5159 10.2061 21.7595C10.4492 22.0032 10.7803 22.1401 11.124 22.1401C11.4688 22.1401 11.7998 22.0032 12.043 21.7595L14.5 19.2927L16.958 21.75C17.2012 21.9937 17.5322 22.1306 17.876 22.1306C18.2207 22.1306 18.5518 21.9937 18.7949 21.75C19.0391 21.5063 19.1758 21.176 19.1758 20.8315C19.1758 20.4868 19.0391 20.1565 18.7949 19.9128L16.9404 18.0583C17.8955 17.8027 18.8145 17.4265 19.6748 16.9385C19.8242 16.8545 19.9561 16.7419 20.0625 16.6069C20.1689 16.4722 20.248 16.3176 20.2939 16.1521C20.3408 15.9868 20.3535 15.8137 20.333 15.6433C20.3125 15.4727 20.2588 15.3079 20.1748 15.1582Z" fill="#FFFFFF" fill-opacity="1.000000" fill-rule="nonzero"/>
</svg>
