<svg width="14.000000" height="14.000000" viewBox="0 0 14 14" fill="none" xmlns="http://www.w3.org/2000/svg" xmlns:xlink="http://www.w3.org/1999/xlink">
	<desc>
			Created with Pixso.
	</desc>
	<defs/>
	<path id="Vector" d="M13.8672 13.2383L10.252 9.68164C11.1992 8.65308 11.7812 7.29297 11.7812 5.79639C11.7793 2.59497 9.14258 0 5.89062 0C2.63672 0 0 2.59497 0 5.79639C0 8.99805 2.63672 11.593 5.89062 11.593C7.29492 11.593 8.58398 11.1067 9.59766 10.2986L13.2266 13.8694C13.4023 14.0435 13.6895 14.0435 13.8672 13.8694C14.0449 13.6953 14.0449 13.4126 13.8672 13.2383ZM5.89062 10.7012C3.13672 10.7012 0.90625 8.50537 0.90625 5.79639C0.90625 3.08765 3.13672 0.891846 5.89062 0.891846C8.64258 0.891846 10.873 3.08765 10.873 5.79639C10.873 8.50537 8.64258 10.7012 5.89062 10.7012Z" fill="#000000" fill-opacity="1.000000" fill-rule="nonzero"/>
</svg>
