<svg width="27" height="27" viewBox="0 0 27 27" fill="none" xmlns="http://www.w3.org/2000/svg">
<g clip-path="url(#clip0_16_1227)">
<path d="M13.5 27C20.9558 27 27 20.9558 27 13.5C27 6.04416 20.9558 0 13.5 0C6.04416 0 0 6.04416 0 13.5C0 20.9558 6.04416 27 13.5 27Z" fill="#039BE5"/>
<path d="M6.17755 13.2075L19.1938 8.18886C19.7979 7.97061 20.3255 8.33624 20.1298 9.24974L20.1309 9.24861L17.9147 19.6897C17.7504 20.43 17.3105 20.61 16.6952 20.2612L13.3202 17.7739L11.6923 19.3421C11.5123 19.5221 11.3604 19.674 11.0117 19.674L11.2513 16.2394L17.5063 10.5885C17.7785 10.3489 17.4455 10.2139 17.0867 10.4524L9.3568 15.3191L6.02455 14.2796C5.30117 14.0501 5.28542 13.5562 6.17755 13.2075Z" fill="white"/>
</g>
<defs>
<clipPath id="clip0_16_1227">
<rect width="27" height="27" fill="white"/>
</clipPath>
</defs>
</svg>
