<svg width="29.000000" height="29.000000" viewBox="0 0 29 29" fill="none" xmlns="http://www.w3.org/2000/svg" xmlns:xlink="http://www.w3.org/1999/xlink">
	<desc>
			Created with Pixso.
	</desc>
	<defs/>
	<path id="XMLID_11_" d="M29 14.5C29 22.5081 22.5078 29 14.5 29C6.49219 29 0 22.5081 0 14.5C0 6.49194 6.49219 0 14.5 0C22.5078 0 29 6.49194 29 14.5Z" fill="#4D76A1" fill-opacity="1.000000" fill-rule="evenodd"/>
	<path id="Vector" d="M13.9521 20.8596L15.0898 20.8596C15.0898 20.8596 15.4336 20.8218 15.6094 20.6326C15.7705 20.459 15.7656 20.1328 15.7656 20.1328C15.7656 20.1328 15.7432 18.6057 16.4521 18.3809C17.1514 18.1592 18.0479 19.8567 18.999 20.5093C19.7178 21.0032 20.2646 20.895 20.2646 20.895L22.8076 20.8596C22.8076 20.8596 24.1377 20.7776 23.5068 19.7319C23.4551 19.6462 23.1396 18.9583 21.6162 17.5444C20.0215 16.0645 20.2354 16.304 22.1562 13.7441C23.3252 12.1853 23.793 11.2336 23.6475 10.8259C23.5078 10.4377 22.6475 10.5403 22.6475 10.5403L19.7842 10.5583C19.7842 10.5583 19.5723 10.5293 19.415 10.6233C19.2607 10.7156 19.1621 10.9307 19.1621 10.9307C19.1621 10.9307 18.709 12.137 18.1045 13.1628C16.8301 15.3276 16.3203 15.4419 16.1123 15.3074C15.627 14.9941 15.748 14.0491 15.748 13.3774C15.748 11.2795 16.0664 10.405 15.1289 10.1785C14.8174 10.1033 14.5889 10.0537 13.793 10.0457C12.7715 10.0352 11.9062 10.0488 11.417 10.2886C11.0908 10.4482 10.8398 10.8035 10.9932 10.824C11.1826 10.8494 11.6104 10.9395 11.8379 11.2488C12.1318 11.6479 12.1211 12.5444 12.1211 12.5444C12.1211 12.5444 12.2891 15.0139 11.7275 15.3206C11.3418 15.531 10.8125 15.1016 9.67578 13.1377C9.09277 12.1316 8.65332 11.0195 8.65332 11.0195C8.65332 11.0195 8.56836 10.8118 8.41797 10.7007C8.23438 10.5659 7.97754 10.5232 7.97754 10.5232L5.25684 10.541C5.25684 10.541 4.84863 10.5522 4.69922 10.73C4.56543 10.8877 4.68848 11.2146 4.68848 11.2146C4.68848 11.2146 6.81836 16.1975 9.22949 18.7085C11.4414 21.0107 13.9521 20.8596 13.9521 20.8596Z" fill="#FFFFFF" fill-opacity="1.000000" fill-rule="evenodd"/>
</svg>
