<svg width="29.000000" height="29.000000" viewBox="0 0 29 29" fill="none" xmlns="http://www.w3.org/2000/svg" xmlns:xlink="http://www.w3.org/1999/xlink">
	<desc>
			Created with Pixso.
	</desc>
	<defs/>
	<path id="background" d="M29 14.5C29 22.5081 22.5083 29 14.5 29C6.4917 29 0 22.5081 0 14.5C0 6.49194 6.4917 0 14.5 0C22.5083 0 29 6.49194 29 14.5Z" fill="#29A71A" fill-opacity="1.000000" fill-rule="evenodd"/>
	<path id="Vector" d="M20.8931 8.10693C19.3843 6.58325 17.3809 5.64893 15.2441 5.47217C13.1069 5.29565 10.9775 5.88843 9.23926 7.1438C7.50098 8.39893 6.26855 10.2341 5.76416 12.3181C5.25977 14.4021 5.5166 16.5977 6.48828 18.509L5.53467 23.1409C5.52441 23.1868 5.52441 23.2346 5.53369 23.2808C5.54297 23.3269 5.56201 23.3706 5.58887 23.4094C5.62842 23.468 5.68506 23.5132 5.75098 23.5386C5.81689 23.5642 5.88916 23.5691 5.95801 23.5527L10.4976 22.4768C12.4033 23.4241 14.5835 23.6643 16.6499 23.1553C18.7163 22.646 20.5352 21.4199 21.7827 19.6956C23.0303 17.9712 23.6255 15.8601 23.4624 13.738C23.2993 11.6162 22.3892 9.62061 20.8931 8.10693ZM19.4775 19.4038C18.4336 20.4446 17.0898 21.1316 15.6348 21.3682C14.1797 21.6047 12.687 21.3787 11.3672 20.7219L10.7349 20.4089L7.95166 21.0679L7.95996 21.0332L8.53662 18.2322L8.22705 17.6208C7.55273 16.2966 7.31445 14.7927 7.54736 13.325C7.77979 11.8572 8.47119 10.5007 9.52197 9.44971C10.8423 8.12988 12.6328 7.38843 14.4995 7.38843C16.3667 7.38843 18.1572 8.12988 19.4775 9.44971C19.4888 9.46265 19.501 9.47485 19.5137 9.48608C20.8179 10.8093 21.5459 12.5945 21.5391 14.4524C21.5322 16.3101 20.791 18.0898 19.4775 19.4038Z" fill="#FFFFFF" fill-opacity="1.000000" fill-rule="nonzero"/>
	<path id="Vector" d="M19.2305 17.3489C18.8892 17.886 18.3506 18.5435 17.6733 18.7065C16.4868 18.9932 14.666 18.7163 12.4004 16.604L12.3726 16.5793C10.3804 14.7322 9.86328 13.1948 9.98828 11.9756C10.0576 11.2834 10.6343 10.6575 11.1201 10.2488C11.1973 10.1831 11.2881 10.1365 11.3862 10.1123C11.4844 10.0884 11.5869 10.0876 11.6855 10.1101C11.7837 10.1328 11.8755 10.178 11.9536 10.2424C12.0312 10.3069 12.0933 10.3887 12.1338 10.4812L12.8667 12.1289C12.9146 12.2356 12.9321 12.3535 12.918 12.4695C12.9038 12.5857 12.8584 12.6958 12.7861 12.7878L12.4155 13.269C12.3359 13.3684 12.2881 13.4893 12.2773 13.6162C12.2671 13.7429 12.2954 13.8701 12.3579 13.981C12.5654 14.345 13.063 14.8806 13.6147 15.3765C14.2344 15.9368 14.9214 16.4492 15.3564 16.6238C15.4731 16.6714 15.6011 16.6829 15.7241 16.6572C15.8472 16.6313 15.9595 16.5691 16.0469 16.4788L16.4771 16.0454C16.5601 15.9636 16.6631 15.9053 16.7759 15.8762C16.8892 15.8474 17.0073 15.8489 17.1196 15.8806L18.8613 16.375C18.9575 16.4045 19.0454 16.4556 19.1187 16.5242C19.1919 16.593 19.2485 16.6775 19.2842 16.7715C19.3198 16.8655 19.3335 16.9663 19.3242 17.0664C19.3149 17.1665 19.2827 17.2632 19.2305 17.3489Z" fill="#FFFFFF" fill-opacity="1.000000" fill-rule="nonzero"/>
</svg>
