<svg width="27" height="27" viewBox="0 0 27 27" fill="none" xmlns="http://www.w3.org/2000/svg">
<g clip-path="url(#clip0_16_1220)">
<path d="M13.5 27C20.9558 27 27 20.9558 27 13.5C27 6.04416 20.9558 0 13.5 0C6.04416 0 0 6.04416 0 13.5C0 20.9558 6.04416 27 13.5 27Z" fill="#29A71A"/>
<path d="M19.4532 7.54784C18.0487 6.12927 16.1834 5.2593 14.1939 5.09487C12.2044 4.93043 10.2216 5.48235 8.60324 6.65108C6.98484 7.8198 5.83735 9.52839 5.36775 11.4687C4.89815 13.4089 5.13735 15.4531 6.04222 17.2326L5.15398 21.5449C5.14476 21.5878 5.1445 21.6322 5.15321 21.6752C5.16192 21.7182 5.17942 21.759 5.2046 21.7949C5.2415 21.8495 5.29416 21.8915 5.35557 21.9154C5.41697 21.9392 5.48419 21.9438 5.54824 21.9284L9.77466 20.9267C11.5491 21.8086 13.5789 22.0324 15.5028 21.5583C17.4268 21.0842 19.1201 19.9428 20.2816 18.3374C21.443 16.7319 21.9972 14.7664 21.8455 12.7907C21.6938 10.815 20.8461 8.95721 19.4532 7.54784ZM18.1355 18.0656C17.1636 19.0347 15.9122 19.6744 14.5576 19.8945C13.2029 20.1147 11.8134 19.9043 10.5847 19.2928L9.99557 19.0014L7.40449 19.615L7.41216 19.5828L7.94909 16.9748L7.66068 16.4057C7.03287 15.1727 6.8114 13.7726 7.028 12.4061C7.2446 11.0395 7.88816 9.77655 8.86648 8.79813C10.0958 7.56923 11.7628 6.87888 13.501 6.87888C15.2392 6.87888 16.9062 7.56923 18.1355 8.79813C18.1459 8.81013 18.1572 8.82141 18.1692 8.83188C19.3832 10.0639 20.061 11.726 20.0547 13.4557C20.0483 15.1854 19.3585 16.8424 18.1355 18.0656Z" fill="white"/>
<path d="M17.9063 16.1527C17.5887 16.6528 17.0871 17.2649 16.4565 17.4168C15.352 17.6837 13.6568 17.426 11.5474 15.4593L11.5214 15.4362C9.66665 13.7165 9.18495 12.2852 9.30154 11.15C9.36597 10.5057 9.9029 9.92272 10.3555 9.54226C10.427 9.4812 10.5119 9.43772 10.6032 9.41531C10.6946 9.3929 10.7899 9.39218 10.8816 9.4132C10.9733 9.43422 11.0588 9.4764 11.1312 9.53637C11.2037 9.59634 11.2611 9.67244 11.2989 9.75857L11.9816 11.2927C12.026 11.3921 12.0424 11.5018 12.0292 11.6099C12.0159 11.718 11.9735 11.8205 11.9064 11.9063L11.5613 12.3543C11.4872 12.4467 11.4425 12.5593 11.4329 12.6774C11.4234 12.7955 11.4494 12.9138 11.5076 13.017C11.7009 13.356 12.1642 13.8546 12.6781 14.3164C13.2549 14.8379 13.8946 15.315 14.2996 15.4777C14.408 15.5219 14.5271 15.5327 14.6417 15.5087C14.7563 15.4846 14.861 15.4268 14.9424 15.3427L15.3428 14.9392C15.42 14.863 15.5161 14.8087 15.6212 14.7817C15.7263 14.7548 15.8367 14.7562 15.9411 14.7858L17.5626 15.246C17.6521 15.2735 17.7341 15.321 17.8023 15.385C17.8706 15.449 17.9233 15.5277 17.9565 15.6152C17.9896 15.7027 18.0023 15.7966 17.9936 15.8897C17.9849 15.9829 17.955 16.0728 17.9063 16.1527Z" fill="white"/>
</g>
<defs>
<clipPath id="clip0_16_1220">
<rect width="27" height="27" fill="white"/>
</clipPath>
</defs>
</svg>
